<svg width="200" height="200" viewBox="0 0 200 200" fill="none" xmlns="http://www.w3.org/2000/svg">
<circle cx="100" cy="100" r="100" fill="white"/>
<mask id="mask0_530_309" style="mask-type:alpha" maskUnits="userSpaceOnUse" x="0" y="0" width="200" height="200">
<circle cx="100" cy="100" r="100" fill="white"/>
</mask>
<g mask="url(#mask0_530_309)">
<path fill-rule="evenodd" clip-rule="evenodd" d="M118.304 87.3959C118.615 69.9914 87.156 65.3347 86.196 97.6033C86.07 101.847 85.9971 106.577 85.8781 109.979C85.4551 110.654 84.9991 111.318 84.6371 112.028C76.8191 127.348 110.476 128.614 122.383 111.81C123.234 110.61 124.006 109.29 124.796 107.772C116.558 104.107 118.186 93.988 118.304 87.3959Z" fill="white" stroke="black" stroke-width="1.59646" stroke-miterlimit="22.9256" stroke-linecap="round" stroke-linejoin="round"/>
<path d="M116.409 87.2824C116.104 87.1022 116.003 86.7087 116.183 86.4036C116.363 86.0986 116.756 85.9975 117.061 86.1776C117.755 86.5888 118.25 87.1789 118.546 87.9477C118.825 88.6732 118.92 89.5458 118.831 90.565C118.8 90.9186 118.489 91.1806 118.136 91.1501C117.782 91.1197 117.521 90.8082 117.551 90.4546C117.624 89.6257 117.558 88.944 117.352 88.4097C117.163 87.9188 116.848 87.543 116.409 87.2824Z" fill="black"/>
<path fill-rule="evenodd" clip-rule="evenodd" d="M39.661 281.143C42.334 282.122 45.338 282.913 48.893 283.423C52.231 274.977 55.49 266.508 58.633 257.987C90.542 268.594 120.421 267.6 151.548 255.334L150.398 237.554C165.48 233.191 176.885 227.166 184.61 219.48C184.61 201.278 179.672 175.326 176.84 156.592C173.718 135.92 165.031 129.195 150.534 121.521C144.597 118.378 138.598 115.336 132.652 112.19C124.988 125.676 104.594 135.719 89.225 131.097C82.479 129.068 76.579 123.36 79.669 115.817C66.639 123.048 49.101 131.069 42.822 145.293C35.973 160.81 42.874 193.418 44.516 210.429C41.288 217.985 40.157 226.381 39.096 234.504C37.652 245.567 36.183 258.783 32 277.491C34.353 278.847 36.82 280.101 39.661 281.143Z" fill="white"/>
<path fill-rule="evenodd" clip-rule="evenodd" d="M85.6593 110.194C85.3613 109.95 84.7974 109.428 84.4844 109.239C83.1574 110.563 82.1393 111.669 81.2543 112.944C75.4253 121.346 80.9423 128.603 89.2273 131.095C104.562 135.707 125.063 125.697 132.721 112.07L125.353 106.292C124.801 107.376 124.379 108.324 123.905 109.257C116.062 124.703 90.1994 127.568 84.5563 119.731C82.3663 116.69 83.8863 113.027 85.6593 110.194Z" fill="white" stroke="black" stroke-width="1.59646" stroke-miterlimit="22.9256" stroke-linecap="round" stroke-linejoin="round"/>
<path fill-rule="evenodd" clip-rule="evenodd" d="M125.353 106.292H122.364C123.025 106.829 123.786 107.304 124.659 107.706C124.875 107.256 125.101 106.788 125.353 106.292Z" fill="black" stroke="black" stroke-width="1.59646" stroke-miterlimit="22.9256" stroke-linecap="round" stroke-linejoin="round"/>
<path d="M121.233 113.296L91.5513 148.912C86.3013 128.189 83.6693 117.807 83.6543 117.764" stroke="black" stroke-width="1.59646" stroke-miterlimit="22.9256" stroke-linecap="round" stroke-linejoin="round"/>
<path fill-rule="evenodd" clip-rule="evenodd" d="M83.0071 150.155C82.4091 150.242 81.9951 150.798 82.0811 151.397L83.5031 161.205H103.164C103.164 161.205 102.557 157.001 101.336 148.601C101.249 148.002 100.694 147.585 100.095 147.671L83.0071 150.155Z" fill="#A7FC00" stroke="black" stroke-width="1.59646" stroke-miterlimit="22.9256" stroke-linecap="round" stroke-linejoin="round"/>
<path d="M79.645 115.757C66.392 123.587 49.302 130.607 42.822 145.288C36.145 160.415 42.828 192.943 44.515 210.424C44.515 210.424 41.939 216.456 40.623 224.089C38.326 237.408 37.569 252.578 32 277.487C36.567 280.117 41.558 282.367 48.893 283.418C53.053 272.891 54.94 267.995 58.633 257.982" stroke="black" stroke-width="1.59646" stroke-miterlimit="22.9256" stroke-linecap="round" stroke-linejoin="round"/>
<path fill-rule="evenodd" clip-rule="evenodd" d="M69.083 121.681C77.383 136.11 99.35 135.065 113.768 128.456C105.467 132.203 96.143 133.493 88.304 130.793C82.066 128.645 76.635 122.751 79.636 115.802C76.098 117.749 72.65 119.786 69.083 121.681Z" fill="black" stroke="black" stroke-width="1.59646" stroke-miterlimit="22.9256" stroke-linecap="round" stroke-linejoin="round"/>
<path d="M132.72 112.109C155.031 125.083 172.364 126.957 176.829 156.514C179.659 175.254 184.611 201.252 184.611 219.479C171.742 232.284 148.663 240.477 115.386 244.058C111.498 240.107 107.577 231.302 108.088 222.391C129.993 219.346 147.798 203.999 165.754 195.77" stroke="black" stroke-width="1.59646" stroke-miterlimit="22.9256" stroke-linecap="round" stroke-linejoin="round"/>
<path fill-rule="evenodd" clip-rule="evenodd" d="M92.2322 110.529C96.9972 109.831 102.15 107.585 105.976 105.345C110.519 102.685 113.601 100.44 114.652 95.0906C115.745 89.5333 115.131 83.2172 117.392 78.007C115.775 77.5623 114.361 76.848 113.15 75.8639C113.678 71.35 112.808 66.3119 112.431 65.3862C111.141 62.2237 103.82 54.456 100.066 54.0388C92.7453 53.2255 84.8282 63.8295 73.4272 61.3328C73.5672 64.8306 73.9092 69.1275 74.0092 73.0023C74.1192 77.2763 73.9352 81.2816 74.3312 85.6114C75.1732 94.8208 77.9412 106.589 86.0612 110.061C88.0892 110.928 89.7962 110.886 92.2322 110.529Z" fill="white" stroke="black" stroke-width="1.59646" stroke-miterlimit="22.9256" stroke-linecap="round" stroke-linejoin="round"/>
<path fill-rule="evenodd" clip-rule="evenodd" d="M100.066 54.0378C103.82 54.4551 111.141 62.2226 112.431 65.3853C112.808 66.311 113.678 71.3492 113.15 75.863C114.361 76.8471 115.775 77.5614 117.392 78.006C118.691 75.0132 120.786 73.4061 124.056 73.5275C128.343 55.8614 125.956 49.3544 112.246 41.6156C109.565 40.1034 90.8692 30.9218 94.9152 39.8579C86.0722 39.7661 65.4052 41.2224 66.4872 54.2111C67.0572 61.0558 74.6302 62.353 80.1572 61.402C86.0442 60.2825 90.9462 56.4402 95.4412 54.7742C96.9992 54.1845 98.5242 53.8665 100.066 54.0378Z" fill="black" stroke="black" stroke-width="1.59646" stroke-miterlimit="22.9256" stroke-linecap="round" stroke-linejoin="round"/>
<path fill-rule="evenodd" clip-rule="evenodd" d="M100.992 92.6911C97.4951 85.0939 93.2181 89.0025 88.6281 89.5921C84.1281 90.1704 80.0771 87.9667 79.0171 94.5628C76.2531 90.5719 74.9891 86.158 74.0801 80.6511C74.1981 87.0788 75.1211 94.234 77.5411 100.172C79.0641 103.901 81.3881 107.553 85.0021 109.542C86.1871 110.194 87.3851 110.627 88.7441 110.737C91.7221 110.849 95.2581 110.051 98.6481 108.824C101.448 107.788 104.085 106.479 106.645 104.95C108.419 103.855 110.995 102.047 112.303 100.424C113.339 99.2419 114.103 97.385 114.479 95.8742C114.952 93.7108 115.164 91.0447 115.415 88.3167C115.739 84.8031 115.966 81.293 117.392 78.0074C115.775 77.5627 114.361 76.8484 113.15 75.8643C113.079 76.4679 112.984 77.0621 112.858 77.6359C112.193 80.6895 110.204 83.4343 107.887 85.4751C105.725 87.3805 103.284 88.9395 100.992 92.6911Z" fill="black" stroke="black" stroke-width="1.59646" stroke-miterlimit="22.9256" stroke-linecap="round" stroke-linejoin="round"/>
<path d="M87.8892 94.2819C90.6322 94.3729 93.0462 93.5571 95.1292 91.8408" stroke="white" stroke-width="1.59646" stroke-miterlimit="22.9256" stroke-linecap="round" stroke-linejoin="round"/>
<path fill-rule="evenodd" clip-rule="evenodd" d="M97.1062 68.545C85.8702 66.0159 83.4772 73.301 95.4972 73.0466C102.779 72.896 104.268 70.1548 97.1062 68.545Z" fill="black" stroke="black" stroke-width="1.59646" stroke-miterlimit="22.9256" stroke-linecap="round" stroke-linejoin="round"/>
<path fill-rule="evenodd" clip-rule="evenodd" d="M99.743 77.5299C99.719 79.7109 97.809 81.4613 95.479 81.4607C93.118 81.4602 91.236 79.7248 91.271 77.5235C94.791 77.4947 96.699 77.5426 99.743 77.5299Z" fill="white" stroke="black" stroke-width="1.59646" stroke-miterlimit="22.9256" stroke-linecap="round" stroke-linejoin="round"/>
<path fill-rule="evenodd" clip-rule="evenodd" d="M95.401 77.5193C94.188 77.5134 92.903 77.5102 91.271 77.5236C91.244 79.2296 92.368 80.6559 93.974 81.2114C95.638 80.7988 97.116 79.2781 96.247 77.5238H96.246C95.966 77.5223 95.685 77.5207 95.401 77.5193Z" fill="black" stroke="black" stroke-width="1.59646" stroke-miterlimit="22.9256" stroke-linecap="round" stroke-linejoin="round"/>
<path d="M99.7432 77.529C92.8962 77.5244 89.4731 77.522 89.4731 77.522" stroke="black" stroke-width="1.59646" stroke-miterlimit="22.9256" stroke-linecap="round" stroke-linejoin="round"/>
<path d="M82.4183 71.9014C84.1863 75.8867 85.0943 80.8719 84.4273 85.3532C80.4483 84.2333 80.2023 85.6256 83.7033 89.5372" stroke="black" stroke-width="1.59646" stroke-miterlimit="22.9256" stroke-linecap="round" stroke-linejoin="round"/>
<path fill-rule="evenodd" clip-rule="evenodd" d="M75.6223 68.0519C70.5013 67.6164 68.0513 72.3111 76.2003 72.5423C78.5073 72.6066 80.4733 72.4848 82.8313 72.9195C81.7953 69.6354 78.8103 68.3228 75.6223 68.0519Z" fill="black" stroke="black" stroke-width="1.59646" stroke-miterlimit="22.9256" stroke-linecap="round" stroke-linejoin="round"/>
<path fill-rule="evenodd" clip-rule="evenodd" d="M79.4282 77.5306C77.1492 77.529 75.3582 77.5278 74.0552 77.5269C74.0572 78.3231 74.0602 79.1172 74.0702 79.9135C74.8342 80.8588 76.0592 81.4614 77.4502 81.4616C79.7802 81.4623 81.6892 79.7126 81.7142 77.532C81.6162 77.5319 81.5192 77.5319 81.4232 77.5318C80.7112 77.5339 80.0602 77.5329 79.4302 77.5305C79.4302 77.5305 79.4292 77.5306 79.4282 77.5306Z" fill="white" stroke="black" stroke-width="1.59646" stroke-miterlimit="22.9256" stroke-linecap="round" stroke-linejoin="round"/>
<path fill-rule="evenodd" clip-rule="evenodd" d="M78.2212 77.5298C76.5072 77.5285 75.1192 77.5277 74.0552 77.5269C74.0572 78.3231 74.0602 79.1172 74.0702 79.9135C74.5432 80.4979 75.1912 80.9512 75.9452 81.2123C77.6072 80.8001 79.0842 79.282 78.2212 77.5298Z" fill="black" stroke="black" stroke-width="1.59646" stroke-miterlimit="22.9256" stroke-linecap="round" stroke-linejoin="round"/>
<path fill-rule="evenodd" clip-rule="evenodd" d="M115.899 86.1307C120.835 90.2095 125.981 84.5843 126.929 79.593C127.531 76.4271 126.534 73.3828 122.501 73.6199C117.14 74.5317 116.304 81.6556 115.899 86.1307Z" fill="white" stroke="black" stroke-width="1.59646" stroke-miterlimit="22.9256" stroke-linecap="round" stroke-linejoin="round"/>
<path d="M122.951 78.8804L120.042 82.2249" stroke="black" stroke-width="1.59646" stroke-miterlimit="22.9256" stroke-linecap="round" stroke-linejoin="round"/>
</g>
</svg>
