<svg width="200" height="200" viewBox="0 0 200 200" fill="none" xmlns="http://www.w3.org/2000/svg">
<circle cx="100" cy="100" r="100" fill="white"/>
<mask id="mask0_530_312" style="mask-type:alpha" maskUnits="userSpaceOnUse" x="0" y="0" width="200" height="200">
<circle cx="100" cy="100" r="100" fill="#D9D9D9"/>
</mask>
<g mask="url(#mask0_530_312)">
<path fill-rule="evenodd" clip-rule="evenodd" d="M69.7979 114.407C81.586 121.063 93.4128 124.138 99.8811 122.143C98.9417 118.362 97.9582 114.884 97.3609 111.173C96.1674 103.752 97.4163 88.3076 86.8063 88.0007C76.4129 87.7002 76.9417 106.124 69.7979 114.407Z" fill="white" stroke="black" stroke-width="1.59646" stroke-miterlimit="22.9256" stroke-linecap="round" stroke-linejoin="round"/>
<path fill-rule="evenodd" clip-rule="evenodd" d="M85.0552 96.5718C87.8364 102.453 93.3117 108.49 97.2557 110.453C96.9933 108.487 96.8877 106.657 96.721 104.706C92.437 102.743 88.1696 100.14 85.0552 96.5718Z" fill="black" stroke="black" stroke-width="1.59646" stroke-miterlimit="22.9256" stroke-linecap="round" stroke-linejoin="round"/>
<path fill-rule="evenodd" clip-rule="evenodd" d="M69.0459 59.2927C71.9129 50.6464 75.5148 42.9507 84.578 39.5237C78.5227 36.5742 73.196 38.0197 69.0812 42.8846C65.2458 47.419 63.9853 54.1039 69.0459 59.2927Z" fill="black" stroke="black" stroke-width="1.59646" stroke-miterlimit="22.9256" stroke-linecap="round" stroke-linejoin="round"/>
<path fill-rule="evenodd" clip-rule="evenodd" d="M79.4194 38.0367C76.1861 39.5586 74.4754 42.7944 74.2876 47.7438C76.7023 44.1765 79.9184 41.2866 84.5777 39.5247C82.7907 38.6543 81.0671 38.1666 79.4194 38.0367Z" fill="white" stroke="black" stroke-width="1.59646" stroke-miterlimit="22.9256" stroke-linecap="round" stroke-linejoin="round"/>
<path fill-rule="evenodd" clip-rule="evenodd" d="M80.003 71.9856C82.1144 69.1979 79.4805 56.712 86.3569 58.4467C98.4372 61.4853 109.472 63.1517 121.953 60.676C120.951 50.169 112.107 42.6065 102.023 39.6679C92.043 36.7598 80.9215 38.2094 74.7021 47.2317C70.5595 53.2393 68.3032 61.3663 66.5351 67.7394C63.7347 77.8344 60.6876 90.8782 59.8717 99.3652C59.5261 102.961 60.3322 104.476 62.7573 105.335C66.4877 106.653 69.6971 107.592 73.6401 108.146C73.8026 107.816 73.9528 107.488 74.0953 107.15C81.5019 107.756 84.0475 107.602 82.2632 99.0201C81.0886 93.3712 79.473 87.7993 78.3277 82.1858C75.3194 82.6092 73.4082 81.5492 72.0942 79.2291C67.5493 71.1984 74.8962 63.4042 79.7175 72.0077L80.003 71.9856Z" fill="black" stroke="black" stroke-width="1.59646" stroke-miterlimit="22.9256" stroke-linecap="round" stroke-linejoin="round"/>
<path fill-rule="evenodd" clip-rule="evenodd" d="M121.884 60.6892C109.432 63.1446 98.4159 61.4787 86.3585 58.4458C79.4821 56.7111 82.1161 69.1971 80.0047 71.9848L79.7192 72.0069C74.898 63.4033 67.551 71.1976 72.0959 79.2283C73.4099 81.5485 75.3211 82.6084 78.3294 82.1851C80.8191 92.722 84.9 98.5462 94.3624 103.539C97.3982 105.143 100.931 106.725 104.428 106.627C108.306 106.519 111.283 103.646 113.54 100.76C119.801 92.7488 121.388 86.2299 122.076 77.1713C122.467 72.0162 122.319 65.9969 121.884 60.6892Z" fill="white" stroke="black" stroke-width="1.59646" stroke-miterlimit="22.9256" stroke-linecap="round" stroke-linejoin="round"/>
<path d="M74.4604 73.8608L77.3693 77.2054" stroke="black" stroke-width="1.59646" stroke-miterlimit="22.9256" stroke-linecap="round" stroke-linejoin="round"/>
<path d="M77.4867 91.0769C80.4474 91.0769 82.8475 88.6744 82.8475 85.7108C82.8475 82.7472 80.4474 80.3447 77.4867 80.3447C74.5261 80.3447 72.126 82.7472 72.126 85.7108C72.126 88.6744 74.5261 91.0769 77.4867 91.0769Z" fill="white" stroke="black" stroke-width="1.59646" stroke-miterlimit="22.9256" stroke-linecap="round" stroke-linejoin="round"/>
<path fill-rule="evenodd" clip-rule="evenodd" d="M99.4746 91.2471C102.11 95.7112 108.165 96.6044 111.179 92.1596C107.372 92.8099 103.617 92.6821 99.4746 91.2471Z" stroke="black" stroke-width="1.59646" stroke-miterlimit="22.9256" stroke-linecap="round" stroke-linejoin="round"/>
<path d="M106.369 94.2552C106.268 93.9179 106.136 93.6029 105.973 93.3117C107.013 93.3554 108.04 93.3273 109.064 93.2378C108.24 93.8397 107.315 94.1685 106.369 94.2552Z" fill="black" stroke="black" stroke-width="1.59646"/>
<path fill-rule="evenodd" clip-rule="evenodd" d="M95.7893 69.0079C106.115 65.8578 110.498 72.1984 98.2909 72.1806C91.1921 72.1673 89.2078 71.0174 95.7893 69.0079Z" fill="black" stroke="black" stroke-width="1.59646" stroke-miterlimit="22.9256" stroke-linecap="round" stroke-linejoin="round"/>
<path fill-rule="evenodd" clip-rule="evenodd" d="M94.9497 80.5435C94.9754 78.1942 97.0325 76.3089 99.5425 76.3096C102.085 76.3101 104.112 78.1794 104.075 80.5505C100.284 80.5814 98.2275 80.5298 94.9497 80.5435Z" fill="white" stroke="black" stroke-width="1.59646" stroke-miterlimit="22.9256" stroke-linecap="round" stroke-linejoin="round"/>
<path fill-rule="evenodd" clip-rule="evenodd" d="M99.6254 80.5559C100.932 80.5623 102.316 80.5657 104.074 80.5513C104.102 78.7137 102.892 77.1775 101.162 76.5791C99.3702 77.0235 97.7783 78.6614 98.7137 80.551C98.7141 80.551 98.7146 80.551 98.715 80.551C99.0167 80.5527 99.3189 80.5545 99.6254 80.5559Z" fill="black" stroke="black" stroke-width="1.59646" stroke-miterlimit="22.9256" stroke-linecap="round" stroke-linejoin="round"/>
<path d="M112.703 71.6772C110.32 75.505 110.253 80.2005 111.023 84.4811C114.918 83.2572 115.203 84.6239 111.864 88.588" stroke="black" stroke-width="1.59646" stroke-miterlimit="22.9256" stroke-linecap="round" stroke-linejoin="round"/>
<path fill-rule="evenodd" clip-rule="evenodd" d="M114.817 72.1651C113.399 72.1683 112.378 72.2305 112.378 72.2305C113.524 69.9775 116.115 69.1802 118.743 69.0581C122.824 68.8685 124.899 70.0006 124.824 71.0133C124.658 73.2369 116.9 72.1606 114.817 72.1651Z" fill="black" stroke="black" stroke-width="1.59646" stroke-miterlimit="22.9256" stroke-linecap="round" stroke-linejoin="round"/>
<path fill-rule="evenodd" clip-rule="evenodd" d="M118.632 76.3184C116.122 76.3177 114.065 78.203 114.04 80.5523C116.888 80.5404 118.813 80.5778 121.756 80.5675C121.863 79.6424 121.954 78.6932 122.033 77.7145C121.205 76.8538 119.993 76.3187 118.632 76.3184Z" fill="white" stroke="black" stroke-width="1.59646" stroke-miterlimit="22.9256" stroke-linecap="round" stroke-linejoin="round"/>
<path fill-rule="evenodd" clip-rule="evenodd" d="M118.716 80.5602C119.648 80.5648 120.62 80.5679 121.739 80.564C121.846 79.6127 121.935 78.6541 122.01 77.6873C121.534 77.1999 120.933 76.819 120.252 76.5835C118.461 77.0279 116.869 78.6658 117.804 80.5554C118.106 80.5571 118.409 80.5588 118.716 80.5602Z" fill="black" stroke="black" stroke-width="1.59646" stroke-miterlimit="22.9256" stroke-linecap="round" stroke-linejoin="round"/>
<path fill-rule="evenodd" clip-rule="evenodd" d="M121.611 81.7061C120.689 88.5524 118.705 94.1484 113.538 100.761C110.836 104.216 107.732 106.988 103.091 106.587C101.201 106.424 99.3192 105.831 97.5313 105.07C96.4868 104.608 96.9056 106.987 96.9478 107.6L101.558 107.599C137.675 107.66 121.699 102.666 122.245 74.022C122.245 76.4217 121.932 79.3168 121.611 81.7061Z" fill="black" stroke="black" stroke-width="1.59646" stroke-miterlimit="22.9256" stroke-linecap="round" stroke-linejoin="round"/>
<path fill-rule="evenodd" clip-rule="evenodd" d="M47.1744 166.65C46.9944 191.562 46.7036 216.48 47.8084 241.376C52.4984 243.073 58.8449 244.223 62.9959 244.776C63.6369 244.856 64.2734 244.933 64.9052 245.006C65.0878 245.026 65.2615 245.043 65.4259 245.059C65.4271 245.061 65.4283 245.064 65.4296 245.067C68.3883 251.441 71.334 257.385 74.0578 262.68C79.15 261.868 84.3136 260.614 89.4068 258.561C93.3312 256.979 97.2138 254.923 100.989 252.23C100.192 250.381 99.4357 248.411 98.7114 246.346C101.582 246.237 104.325 246.081 106.955 245.896C112.474 245.508 117.492 244.997 122.128 244.554C122.13 244.56 122.131 244.566 122.132 244.573C125.289 243.898 128.34 242.905 131.205 241.467C128.264 231.366 123.584 217.751 120.239 203.287C125.677 209.775 132.69 215.308 132.69 215.308C145.708 208.82 159.17 195.04 166.574 186.401C164.088 183.651 161.852 180.996 159.814 178.031C157.148 174.152 154.821 169.744 152.716 163.904C149.157 167.39 144.162 171.528 135.36 177.379C131.889 163.883 129.747 149.913 122.938 137.478C119.137 130.54 114.41 126.471 104.868 122.961C105.02 124.028 105.211 125.366 105.505 127.328C95.5085 135.481 74.5558 125.508 64.626 120.19C56.6797 128.428 51.4929 133.249 49.0655 145.183C47.7232 151.783 47.229 159.105 47.1744 166.65Z" fill="#A7FC00"/>
<path d="M98.5288 245.705C109.483 246.095 121.426 246.379 131.206 241.47C127.348 228.223 120.501 208.932 117.596 189.609C119.796 179.956 119.39 182.094 121.852 171.286L115.315 147.766" stroke="black" stroke-width="1.59646" stroke-miterlimit="22.9256" stroke-linecap="round" stroke-linejoin="round"/>
<path d="M47.1738 166.654C48.7227 185.286 49.5847 197.175 50.6711 208.144C57.1875 228.204 66.4802 247.956 74.0573 262.685C83.0731 261.247 92.3132 258.422 100.989 252.234C94.7323 237.72 90.9445 215.702 86.0788 199.427C86.2285 188.038 86.6026 180.735 87.0502 171.765M47.1738 166.654C46.9939 191.567 46.7031 216.484 47.8079 241.381C53.5637 243.463 61.8149 244.722 65.4402 245.065M47.1738 166.654C47.2284 159.109 47.7229 151.787 49.0653 145.187C51.4182 133.619 55.7987 129.346 64.6257 120.195" stroke="black" stroke-width="1.59646" stroke-miterlimit="22.9256" stroke-linecap="round" stroke-linejoin="round"/>
<path fill-rule="evenodd" clip-rule="evenodd" d="M86.7911 177.016C86.6022 179.817 85.8913 196.806 85.7678 199.244C84.5265 223.731 86.5283 229.776 91.0535 215.233C89.9828 210.913 88.8951 205.292 87.3167 197.217C87.3167 197.217 86.5771 180.323 86.7911 177.016Z" fill="black" stroke="black" stroke-width="1.59646" stroke-miterlimit="22.9256" stroke-linecap="round" stroke-linejoin="round"/>
<path fill-rule="evenodd" clip-rule="evenodd" d="M60.7446 244.485C62.4942 244.762 64.0237 244.955 65.1418 245.061C59.815 233.565 54.8239 220.924 50.6712 208.14C49.5849 197.171 48.7228 185.282 47.1739 166.65C47.0743 180.446 46.9406 194.244 47.0287 208.039C49.6965 218.782 53.3632 230.98 58.0289 244.015C58.9721 244.192 59.885 244.349 60.7446 244.485Z" fill="black" stroke="black" stroke-width="1.59646" stroke-miterlimit="22.9256" stroke-linecap="round" stroke-linejoin="round"/>
<path d="M104.868 122.958C114.41 126.468 119.137 130.537 122.937 137.475C129.747 149.91 131.889 163.88 135.36 177.377" stroke="black" stroke-width="1.59646" stroke-miterlimit="22.9256" stroke-linecap="round" stroke-linejoin="round"/>
<path fill-rule="evenodd" clip-rule="evenodd" d="M152.716 163.898C154.821 169.739 157.148 174.147 159.814 178.026C159.856 177.963 159.855 177.983 159.814 177.919C162.558 173.862 165.313 169.822 168.041 165.752C174.564 166.358 178.655 157.938 182.766 154.257C186.205 151.172 190.137 148.489 194.092 146.115C194.371 144.735 194.613 143.19 194.674 141.394C194.698 140.69 194.694 139.947 194.654 139.16C194.583 137.774 194.471 136.616 194.317 135.659C193.244 129.02 190.089 132.061 183.846 135.816C179.728 138.372 176.046 141.397 174.92 140.162C173.201 138.278 183.34 124.917 184.73 123.017C180.635 118.276 179.819 122.182 174.681 129.782C173.064 132.175 167.428 139.57 165.489 141.305C163.859 135.137 168.102 124 161.621 125.528C160.732 128.778 159.588 132.196 158.181 135.775C158.344 143.797 156.726 148.909 158.726 157.356C156.891 159.458 155.135 161.528 152.716 163.898Z" fill="white"/>
<path d="M170.073 148.544C169.203 145.804 166.044 144.306 165.222 140.306C164.017 134.47 168.102 123.999 161.621 125.527C160.732 128.777 159.588 132.195 158.181 135.774C158.344 143.796 156.726 148.908 158.726 157.355C154.029 162.735 149.857 167.898 133.74 178.441" stroke="black" stroke-width="1.59646" stroke-miterlimit="22.9256" stroke-linecap="round" stroke-linejoin="round"/>
<path d="M182.841 154.201C181.152 147.069 177.052 141.426 170.265 135.875" stroke="black" stroke-width="1.59646" stroke-miterlimit="22.9256" stroke-linecap="round" stroke-linejoin="round"/>
<path d="M194.674 141.396L181.153 148.848" stroke="black" stroke-width="1.59646" stroke-miterlimit="22.9256" stroke-linecap="round" stroke-linejoin="round"/>
<path d="M165.488 141.305C169.238 137.404 171.659 134.252 174.68 129.782C179.817 122.181 180.634 118.276 184.729 123.017C183.339 124.917 173.2 138.278 174.919 140.162C176.045 141.397 179.727 138.372 183.845 135.816C190.988 131.52 194.088 128.158 194.653 139.16C194.796 141.952 194.48 144.194 194.091 146.115C189.573 148.827 185.798 151.542 182.764 154.257C178.654 157.938 174.563 166.358 168.04 165.752L159.813 178.026M178.618 144.527C183.161 141.715 189.206 138.397 194.316 135.659" stroke="black" stroke-width="1.59646" stroke-miterlimit="22.9256" stroke-linecap="round" stroke-linejoin="round"/>
<path d="M134.091 178.976C133.796 179.17 133.399 179.088 133.206 178.792C133.012 178.497 133.094 178.1 133.389 177.906C133.767 177.658 134.004 177.255 134.114 176.749C134.247 176.138 134.201 175.385 133.997 174.56C133.912 174.217 134.122 173.869 134.466 173.785C134.809 173.7 135.157 173.91 135.241 174.254C135.492 175.268 135.543 176.218 135.368 177.021C135.188 177.851 134.771 178.529 134.091 178.976Z" fill="black"/>
<path d="M152.717 163.904C156.43 174.209 160.836 180.053 166.575 186.402C159.171 195.04 145.709 208.821 132.691 215.309C132.691 215.309 125.677 209.776 120.24 203.288" stroke="black" stroke-width="1.59646" stroke-miterlimit="22.9256" stroke-linecap="round" stroke-linejoin="round"/>
<path fill-rule="evenodd" clip-rule="evenodd" d="M159.814 177.926C161.785 180.972 164.145 183.715 166.574 186.402C166.304 183.844 164.197 178.032 162.248 174.326L159.814 177.926Z" fill="black" stroke="black" stroke-width="1.59646" stroke-miterlimit="22.9256" stroke-linecap="round" stroke-linejoin="round"/>
<path fill-rule="evenodd" clip-rule="evenodd" d="M136.06 213.477C127.121 209.2 121.714 196.646 120.967 175.149C119.452 181.723 119.486 181.313 117.596 189.606C118.286 194.195 119.198 198.782 120.24 203.287C125.677 209.775 132.691 215.308 132.691 215.308C133.64 214.83 135.14 213.997 136.06 213.477Z" fill="black" stroke="black" stroke-width="1.59646" stroke-miterlimit="22.9256" stroke-linecap="round" stroke-linejoin="round"/>
<path fill-rule="evenodd" clip-rule="evenodd" d="M98.0001 114.574L99.8827 122.152C102.05 121.484 103.564 120.306 104.211 118.596C102.814 117.722 101.215 116.562 98.0061 114.574H98.0001Z" fill="black" stroke="black" stroke-width="1.59646" stroke-miterlimit="22.9256" stroke-linecap="round" stroke-linejoin="round"/>
<path d="M69.169 121.813C69.4917 121.957 69.6366 122.336 69.4926 122.659C69.3486 122.982 68.9701 123.127 68.6474 122.983C67.2658 122.366 66.0535 122.094 65.0108 122.167C64.0264 122.236 63.1851 122.625 62.4875 123.331C62.2396 123.584 61.8341 123.587 61.5819 123.339C61.3298 123.091 61.3265 122.685 61.5744 122.432C62.5007 121.494 63.6178 120.979 64.9256 120.887C66.1751 120.799 67.5898 121.107 69.169 121.813Z" fill="black"/>
<path fill-rule="evenodd" clip-rule="evenodd" d="M99.8828 122.151C93.4193 124.152 81.5871 121.067 69.7982 114.409C67.7653 116.788 66.5972 118.073 64.6265 120.189C86.8061 132.066 99.352 132.345 105.505 127.326C104.755 122.306 104.671 121.373 104.211 118.595C103.571 120.305 102.05 121.484 99.8828 122.151Z" fill="#A7FC00" stroke="black" stroke-width="1.59646" stroke-miterlimit="22.9256" stroke-linecap="round" stroke-linejoin="round"/>
</g>
</svg>
